<svg xmlns="http://www.w3.org/2000/svg" width="2804" height="3409" style="shape-rendering:geometricPrecision;text-rendering:geometricPrecision;image-rendering:optimizeQuality;fill-rule:evenodd;clip-rule:evenodd"><path style="opacity:1" fill="#3398ff" d="M2641.5-.5h24c59.17 7.348 101.34 38.015 126.5 92 5.75 14.991 9.58 30.324 11.5 46v24c-1.71 13.86-4.88 27.526-9.5 41-15.31 35.993-35.65 68.66-61 98-28.67 49.333-57.33 98.667-86 148a723.726 723.726 0 0 0-21 40 137644.685 137644.685 0 0 1-352 610c-7.4 13.08-14.4 26.42-21 40a34804.755 34804.755 0 0 1-158 273c-7.4 13.08-14.4 26.42-21 40a137816.72 137816.72 0 0 0-352 610c-7.4 13.08-14.4 26.42-21 40-57.41 99.83-115.08 199.5-173 299-7.4 13.08-14.4 26.42-21 40-52.67 90.67-105.33 181.33-158 272-7.4 13.08-14.4 26.42-21 40-57.67 99.33-115.33 198.67-173 298a2073.718 2073.718 0 0 1-74 130 4943.361 4943.361 0 0 1-105 183c-7.862 14.4-15.695 28.73-23.5 43 118.45-408.86 237.62-817.53 357.5-1226 40.91-72.82 82.58-145.16 125-217 7.4-13.08 14.4-26.42 21-40 52.67-90.67 105.33-181.33 158-272 7.4-13.08 14.4-26.42 21-40 57.67-99.33 115.33-198.67 173-298 7.4-13.08 14.4-26.42 21-40 52.92-90.84 105.59-181.84 158-273a723.726 723.726 0 0 0 21-40c57.67-99.333 115.33-198.667 173-298a723.726 723.726 0 0 0 21-40c54.9-93.908 109.4-188.075 163.5-282.5a69338.12 69338.12 0 0 0-424 56c-23.4 3.234-46.74 6.9-70 11-372.98 50.108-745.98 100.108-1119 150A35434.12 35434.12 0 0 1 306 618.5a240.528 240.528 0 0 1-1.5 16c.582 24.985.916 49.985 1 75a1690.793 1690.793 0 0 1-2 45c.199 285.01.199 570.01 0 855-.467 15.02-1.134 30.02-2 45 .582 135.01.916 270.01 1 405-.467 15.02-1.134 30.02-2 45 .582 144.99.916 289.99 1 435-.467 15.02-1.134 30.02-2 45v120c.732 7.65 1.232 15.31 1.5 23 12-21.33 24-42.67 36-64a131.744 131.744 0 0 1 11-16 3898.037 3898.037 0 0 1 74-125c17.333-30.67 34.667-61.33 52-92a358.835 358.835 0 0 0 24-37l37-66a2620.635 2620.635 0 0 0 76-129c8.5-12.33 16.5-25 24-38l37-66a358.835 358.835 0 0 0 24-37c17.333-30.67 34.667-61.33 52-92a131.744 131.744 0 0 1 11-16 3898.037 3898.037 0 0 1 74-125l37-66a3020.944 3020.944 0 0 1 39-63l37-66a2620.635 2620.635 0 0 0 76-129c8.5-12.33 16.5-25 24-38 12.33-22 24.67-44 37-66a357.84 357.84 0 0 0 24-37c17.33-30.67 34.67-61.33 52-92 3.28-5.61 6.94-10.94 11-16 23.91-42.16 48.58-83.83 74-125 12.33-22 24.67-44 37-66a3678.532 3678.532 0 0 0 83-140c.17.5.33 1 .5 1.5a368522.01 368522.01 0 0 0-116.5 397.5 2971.006 2971.006 0 0 1-42 144 2971.006 2971.006 0 0 1-42 144 2971.006 2971.006 0 0 1-42 144 2971.006 2971.006 0 0 1-42 144 2971.006 2971.006 0 0 1-42 144l-12 46a3429.44 3429.44 0 0 0-79 136 358.835 358.835 0 0 0-24 37l-37 66a131.744 131.744 0 0 1-11 16 9405.345 9405.345 0 0 1-65 113c-8.5 12.33-16.5 25-24 38l-37 66a358.835 358.835 0 0 0-24 37c-17.333 30.67-34.667 61.33-52 92a131.744 131.744 0 0 1-11 16 3898.037 3898.037 0 0 1-74 125l-37 66a1185.256 1185.256 0 0 0-25 39 10405.683 10405.683 0 0 1-97 168 3020.944 3020.944 0 0 1-39 63 2034.727 2034.727 0 0 1-75 128c-10.333 12.33-20.667 24.67-31 37-55.629 54.06-119.796 66.89-192.5 38.5-53.985-25.16-84.652-67.33-92-126.5v-24c1.333-1.67 1.333-3.33 0-5v-24c1.333-2 1.333-4 0-6v-24c1.333-2 1.333-4 0-6v-24c1.333-2 1.333-4 0-6v-24c1.333-2 1.333-4 0-6v-24c1.333-2 1.333-4 0-6v-24c1.333-2 1.333-4 0-6v-24c.732-10.84 1.399-21.84 2-33-.582-135.01-.916-270.01-1-405 .467-15.02 1.134-30.02 2-45-.582-144.99-.916-289.99-1-435 .467-15.02 1.134-30.02 2-45-.582-135.01-.916-270.01-1-405 .467-15.02 1.134-30.02 2-45-.582-135.01-.916-270.01-1-405 .467-15.02 1.134-30.02 2-45a93980.297 93980.297 0 0 1 0-651c.99-69.868 33.324-118.701 97-146.5a187.255 187.255 0 0 1 32-8 613541.961 613541.961 0 0 1 1625-219 5172.336 5172.336 0 0 0 129-19c251.26-33.027 502.26-66.86 753-101.5zM952.5 3406.5v2h-1c-.172-.99.162-1.66 1-2z"/></svg>