<svg xmlns="http://www.w3.org/2000/svg" width="512" height="512" style="shape-rendering:geometricPrecision;text-rendering:geometricPrecision;image-rendering:optimizeQuality;fill-rule:evenodd;clip-rule:evenodd"><path style="opacity:.941" d="M78.5-.5h248a8309.142 8309.142 0 0 1 132.5 133c.667 80 .667 160 0 240-3.914 5.642-8.58 6.309-14 2a8894.31 8894.31 0 0 1-1.5-230c-33.002.167-66.002 0-99-.5-15.816-2.149-25.65-10.982-29.5-26.5-.5-34.332-.667-68.665-.5-103-75.667-.167-151.334 0-227 .5-10.056.726-16.556 5.892-19.5 15.5l-1 138c-2.435 4.724-6.269 6.224-11.5 4.5l-3.5-3.5c-.667-47-.667-94 0-141 3.505-14.667 12.339-24.333 26.5-29zm252 28a14340.69 14340.69 0 0 1 101 100.5c-29 .667-58 .667-87 0-6.762-1.763-11.262-5.93-13.5-12.5-.5-29.331-.667-58.665-.5-88z"/><path style="opacity:.908" fill="#3398ff" d="M115.5 119.5c5.257-.979 9.59.521 13 4.5 7.385 3.876 13.718 2.542 19-4 8.996-2.001 12.829 1.499 11.5 10.5-8.463 10.487-19.296 13.987-32.5 10.5-7.304-2.307-12.304-6.974-15-14 .494-3.008 1.827-5.508 4-7.5zM236.5 119.5a32.462 32.462 0 0 1 8 .5c7.921 8.559 15.921 8.559 24 0 9.481-1.522 12.981 2.312 10.5 11.5-14.694 14.226-29.694 14.559-45 1-2.537-5.105-1.704-9.439 2.5-13z"/><path style="opacity:.899" fill="#3398ff" d="M221.5 141.5c8.408 2.892 10.242 8.226 5.5 16-12.784 14.625-28.284 18.459-46.5 11.5-7.61-4.441-13.277-10.607-17-18.5 1.621-6.311 5.621-8.811 12-7.5a553.365 553.365 0 0 1 9 9c7.391 5.58 15.058 5.914 23 1 4-2.667 7.333-6 10-10 1.558-.21 2.891-.71 4-1.5z"/><path style="opacity:.96" d="M432.5 511.5h-354c-14.161-4.667-22.995-14.333-26.5-29-.667-96.667-.667-193.333 0-290 5.4-6.654 10.4-6.32 15 1l1 287c2.944 9.608 9.444 14.774 19.5 15.5 114.03.988 228.03.655 342-1 6.928-2.594 11.428-7.427 13.5-14.5l1-84c2.541-4.569 6.375-6.069 11.5-4.5l3.5 3.5c.667 29 .667 58 0 87-3.505 14.667-12.339 24.333-26.5 29z"/></svg>