<svg xmlns="http://www.w3.org/2000/svg" width="7768" height="3409" style="shape-rendering:geometricPrecision;text-rendering:geometricPrecision;image-rendering:optimizeQuality;fill-rule:evenodd;clip-rule:evenodd"><path style="opacity:1" fill="#3398ff" d="M2641.5-.5h24c59.17 7.348 101.34 38.015 126.5 92 17.78 46.067 14.78 90.734-9 134a692.8 692.8 0 0 0-17 31 418.743 418.743 0 0 1-33 44 122.802 122.802 0 0 1-11 18 3125.234 3125.234 0 0 1-75 130 723.726 723.726 0 0 0-21 40 137644.685 137644.685 0 0 1-352 610c-7.4 13.08-14.4 26.42-21 40a34804.755 34804.755 0 0 1-158 273c-7.4 13.08-14.4 26.42-21 40a137816.72 137816.72 0 0 0-352 610c-7.4 13.08-14.4 26.42-21 40-57.41 99.83-115.08 199.5-173 299-7.4 13.08-14.4 26.42-21 40-52.67 90.67-105.33 181.33-158 272-7.4 13.08-14.4 26.42-21 40-57.67 99.33-115.33 198.67-173 298a2073.718 2073.718 0 0 1-74 130 4943.361 4943.361 0 0 1-105 183c-7.862 14.4-15.695 28.73-23.5 43 118.45-408.86 237.62-817.53 357.5-1226 40.91-72.82 82.58-145.16 125-217 7.4-13.08 14.4-26.42 21-40 52.67-90.67 105.33-181.33 158-272 7.4-13.08 14.4-26.42 21-40 57.67-99.33 115.33-198.67 173-298 7.4-13.08 14.4-26.42 21-40 52.92-90.84 105.59-181.84 158-273a723.726 723.726 0 0 0 21-40c57.67-99.333 115.33-198.667 173-298a723.726 723.726 0 0 0 21-40c54.9-93.908 109.4-188.075 163.5-282.5a69338.12 69338.12 0 0 0-424 56c-23.4 3.234-46.74 6.9-70 11-372.98 50.108-745.98 100.108-1119 150A35434.12 35434.12 0 0 1 306 618.5a240.528 240.528 0 0 1-1.5 16c.582 24.985.916 49.985 1 75a1690.793 1690.793 0 0 1-2 45c.199 285.01.199 570.01 0 855-.467 15.02-1.134 30.02-2 45 .582 135.01.916 270.01 1 405-.467 15.02-1.134 30.02-2 45 .582 144.99.916 289.99 1 435-.467 15.02-1.134 30.02-2 45v120c.732 7.65 1.232 15.31 1.5 23 12-21.33 24-42.67 36-64a131.744 131.744 0 0 1 11-16 3898.037 3898.037 0 0 1 74-125c17.333-30.67 34.667-61.33 52-92a358.835 358.835 0 0 0 24-37l37-66a2620.635 2620.635 0 0 0 76-129c8.5-12.33 16.5-25 24-38l37-66a358.835 358.835 0 0 0 24-37c17.333-30.67 34.667-61.33 52-92a131.744 131.744 0 0 1 11-16 3898.037 3898.037 0 0 1 74-125l37-66a3020.944 3020.944 0 0 1 39-63l37-66a2620.635 2620.635 0 0 0 76-129c8.5-12.33 16.5-25 24-38 12.33-22 24.67-44 37-66a357.84 357.84 0 0 0 24-37c17.33-30.67 34.67-61.33 52-92 3.28-5.61 6.94-10.94 11-16 23.91-42.16 48.58-83.83 74-125 12.33-22 24.67-44 37-66a3678.532 3678.532 0 0 0 83-140c.17.5.33 1 .5 1.5a368522.01 368522.01 0 0 0-116.5 397.5 2971.006 2971.006 0 0 1-42 144 2971.006 2971.006 0 0 1-42 144 2971.006 2971.006 0 0 1-42 144 2971.006 2971.006 0 0 1-42 144 2971.006 2971.006 0 0 1-42 144l-12 46a3429.44 3429.44 0 0 0-79 136 358.835 358.835 0 0 0-24 37l-37 66a131.744 131.744 0 0 1-11 16 9405.345 9405.345 0 0 1-65 113c-8.5 12.33-16.5 25-24 38l-37 66a358.835 358.835 0 0 0-24 37c-17.333 30.67-34.667 61.33-52 92a131.744 131.744 0 0 1-11 16 3898.037 3898.037 0 0 1-74 125l-37 66a1185.256 1185.256 0 0 0-25 39 10405.683 10405.683 0 0 1-97 168 3020.944 3020.944 0 0 1-39 63 2034.727 2034.727 0 0 1-75 128c-10.333 12.33-20.667 24.67-31 37-55.629 54.06-119.796 66.89-192.5 38.5-53.985-25.16-84.652-67.33-92-126.5v-24c1.333-1.67 1.333-3.33 0-5v-24c1.333-2 1.333-4 0-6v-24c1.333-2 1.333-4 0-6v-24c1.333-2 1.333-4 0-6v-24c1.333-2 1.333-4 0-6v-24c1.333-2 1.333-4 0-6v-24c1.333-2 1.333-4 0-6v-24c.732-10.84 1.399-21.84 2-33-.582-135.01-.916-270.01-1-405 .467-15.02 1.134-30.02 2-45-.582-144.99-.916-289.99-1-435 .467-15.02 1.134-30.02 2-45-.582-135.01-.916-270.01-1-405 .467-15.02 1.134-30.02 2-45-.582-135.01-.916-270.01-1-405 .467-15.02 1.134-30.02 2-45a93980.297 93980.297 0 0 1 0-651c.99-69.868 33.324-118.701 97-146.5a187.255 187.255 0 0 1 32-8 613541.961 613541.961 0 0 1 1625-219 5172.336 5172.336 0 0 0 129-19c251.26-33.027 502.26-66.86 753-101.5z"/><path style="opacity:.997" fill="#39f" d="M4883.5 730.5c69.65-3.369 137.99 4.465 205 23.5 124.75 40.78 212.58 121.613 263.5 242.5 24.39 63.02 37.39 128.35 39 196 .67 358 .67 716 0 1074-1.63 74.81-17.29 146.47-47 215-60.51 125.71-159.01 203.88-295.5 234.5-97.88 19.8-195.22 17.47-292-7-111.71-32.23-196.21-98.73-253.5-199.5-39.29-76.15-59.62-157.15-61-243-.67-358-.67-716 0-1074 1.67-76.36 18.01-149.36 49-219 64.75-129.345 168.58-207.178 311.5-233.5a773.565 773.565 0 0 1 81-9.5zm13 273c113.42-6.729 178.58 45.94 195.5 158a434.66 434.66 0 0 1 4 45c.67 349 .67 698 0 1047-.67 38.03-8.01 74.7-22 110-22.81 50.45-61.64 80.29-116.5 89.5-38.32 6.29-75.99 3.62-113-8-43.96-16.63-73.8-47.13-89.5-91.5-11.39-32.35-17.39-65.68-18-100-.67-349-.67-698 0-1047 .7-33.54 6.37-66.21 17-98 25.21-65.04 72.71-100.04 142.5-105zM6083.5 730.5c63.93-3.019 126.93 3.148 189 18.5 145.6 41.934 235.43 136.768 269.5 284.5 12.04 60.42 16.38 121.42 13 183-94.41 9.76-188.91 19.09-283.5 28 .17-30 0-60-.5-90-5.25-107.25-61.41-157.417-168.5-150.5-71.65 6.64-113.48 45.48-125.5 116.5-16.46 98.79 4.2 188.79 62 270 27.19 36.54 57.36 70.71 90.5 102.5 17.67 16.33 35.33 32.67 53 49 46.85 38.85 92.52 79.18 137 121 58.74 55.71 111.91 115.88 159.5 180.5 67.36 95.4 103.69 201.73 109 319 .67 55 .67 110 0 165-2.13 70.85-19.13 137.85-51 201-52.24 92.09-129.74 151.93-232.5 179.5-56.2 14.76-113.36 21.93-171.5 21.5-59.21.41-117.38-7.09-174.5-22.5-145.45-44.12-234.95-140.28-268.5-288.5-7-33.98-11-68.32-12-103-.83-51-.67-102 .5-153 94.28-9.69 188.61-19.03 283-28-.17 51 0 102 .5 153 .34 35.7 8.67 69.36 25 101 23.23 36.39 56.4 57.89 99.5 64.5 41.34 6.88 81.67 3.21 121-11 30.78-13.78 53.28-35.94 67.5-66.5 10.84-25.55 16.84-52.21 18-80 .67-35.33.67-70.67 0-106-3.61-50.48-18.27-97.48-44-141a578.794 578.794 0 0 0-54-74 1263.29 1263.29 0 0 0-83.5-85.5c-46.04-41.04-92.37-81.71-139-122-41.53-38.53-81.36-78.7-119.5-120.5a894.156 894.156 0 0 1-93-125c-52.06-89.89-79.39-186.89-82-291-1.06-40.7-.4-81.37 2-122 4.49-66.95 22.49-129.953 54-189 51.84-87.784 127.34-144.617 226.5-170.5 40.53-10.242 81.53-16.409 123-18.5z"/><path style="opacity:.998" fill="#39f" d="M3192.5 758.5c154.67-.167 309.33 0 464 .5 66.21 2.374 130.21 15.374 192 39 106.47 44.807 179.97 121.307 220.5 229.5 24.21 70.62 35.88 143.28 35 218 .67 322.67.67 645.33 0 968 .7 71.77-9.97 141.77-32 210-45.33 127.33-132.5 211.17-261.5 251.5-54.16 16.03-109.5 24.69-166 26-150.67.5-301.33.67-452 .5v-1943zm295 272c47.35-.37 94.68.13 142 1.5 92.96 8.06 149.79 57.56 170.5 148.5 4.22 19.45 6.89 39.12 8 59 .67 326.67.67 653.33 0 980-1.62 37.46-9.62 73.46-24 108-24.69 52.34-65.52 84.17-122.5 95.5a283.2 283.2 0 0 1-40 5c-44.67.5-89.33.67-134 .5v-1398z"/><path style="opacity:.997" fill="#39f" d="M7767.5 758.5v3c-134.06 353.8-267.89 707.8-401.5 1062-.5 292.67-.67 585.33-.5 878h-295c.17-293.67 0-587.33-.5-881-135.83-353.67-271.67-707.33-407.5-1061 104-1.333 208-1.333 312 0 82.45 228.559 164.61 457.23 246.5 686 1.67 1.33 3.33 1.33 5 0 78.53-228.59 156.86-457.259 235-686 102.1-.999 204.26-1.332 306.5-1z"/><path style="opacity:1" fill="#3398ff" d="M952.5 3406.5v2h-1c-.172-.99.162-1.66 1-2z"/></svg>